Coordinates
version=1
nRows=49
nColumns=12
inDegrees=yes

Units are S.I. units (second, meters, Newtons, ...)
Angles are in degrees

endheader
time	SC_y	SC_z	SC_x	AC_y	AC_z	AC_x	GH_y	GH_z	GH_yy	EL_x	PS_y
       0.0              -28.79          13.18          9.879          40.24          8.805         -19.27         -133.1           42.4          14.12          123.8          20.71
   0.02783              -28.79          13.18          9.886          40.24          8.804         -19.27         -133.1           42.4          14.14          123.8          20.72
   0.05565              -28.79          13.17          9.893          40.23          8.802         -19.27         -133.0          42.41          14.15          123.8          20.73
   0.08348               -28.8          13.17            9.9          40.23            8.8         -19.27         -133.0          42.41          14.17          123.8          20.74
    0.1113               -28.8          13.17          9.908          40.23          8.798         -19.27         -132.9          42.41          14.18          123.8          20.76
    0.1391               -28.8          13.17          9.917          40.23          8.796         -19.27         -132.9          42.42           14.2          123.8          20.78
     0.167              -28.81          13.16          9.926          40.23          8.794         -19.27         -132.8          42.42          14.22          123.8          20.79
    0.1948              -28.81          13.16          9.936          40.23          8.792         -19.27         -132.8          42.43          14.24          123.8          20.81
    0.2226              -28.82          13.15          9.946          40.23          8.789         -19.27         -132.7          42.43          14.26          123.8          20.83
    0.2504              -28.83          13.15          9.957          40.22          8.787         -19.27         -132.6          42.44          14.29          123.7          20.85
    0.2783              -28.83          13.15          9.969          40.22          8.784         -19.27         -132.5          42.44          14.31          123.7          20.87
    0.3061              -28.84          13.14          9.982          40.22          8.781         -19.27         -132.5          42.45          14.34          123.7           20.9
    0.3339              -28.84          13.14          9.996          40.22          8.777         -19.27         -132.4          42.45          14.37          123.7          20.92
    0.3618              -28.85          13.13          10.01          40.21          8.774         -19.27         -132.3          42.46           14.4          123.7          20.95
    0.3896              -28.86          13.13          10.03          40.21           8.77         -19.27         -132.2          42.47          14.44          123.7          20.98
    0.4174              -28.87          13.12          10.04          40.21          8.766         -19.27         -132.0          42.48          14.48          123.7          21.02
    0.4452              -28.88          13.11          10.06          40.21          8.761         -19.27         -131.9          42.49          14.52          123.6          21.05
    0.4731              -28.89           13.1          10.08           40.2          8.756         -19.27         -131.8           42.5          14.56          123.6          21.09
    0.5009               -28.9           13.1          10.11           40.2          8.751         -19.27         -131.6          42.51          14.61          123.6          21.13
    0.5287              -28.91          13.09          10.13          40.19          8.745         -19.27         -131.5          42.52          14.67          123.6          21.18
    0.5565              -28.93          13.08          10.16          40.19          8.738         -19.27         -131.3          42.53          14.73          123.6          21.23
    0.5844              -28.94          13.07          10.19          40.18          8.731         -19.27         -131.1          42.54          14.79          123.5          21.29
    0.6122              -28.96          13.05          10.22          40.18          8.723         -19.27         -130.9          42.56          14.86          123.5          21.35
      0.64              -28.98          13.04          10.26          40.17          8.715         -19.27         -130.6          42.58          14.94          123.5          21.42
    0.6679               -29.0          13.03           10.3          40.17          8.705         -19.27         -130.3           42.6          15.03          123.4           21.5
    0.6957              -29.02          13.01          10.35          40.16          8.694         -19.27         -130.0          42.62          15.13          123.4          21.58
    0.7235              -29.05          12.99           10.4          40.15          8.682         -19.27         -129.7          42.64          15.24          123.3          21.68
    0.7513              -29.07          12.97          10.45          40.14          8.668         -19.27         -129.3          42.67          15.36          123.3          21.78
    0.7792              -29.11          12.95          10.52          40.13          8.653         -19.27         -128.9           42.7           15.5          123.2          21.91
     0.807              -29.14          12.92          10.59          40.12          8.635         -19.27         -128.4          42.73          15.66          123.1          22.04
    0.8348              -29.19          12.89          10.68           40.1          8.615         -19.27         -127.8          42.77          15.85          123.1           22.2
    0.8626              -29.23          12.85          10.77          40.09          8.592         -19.27         -127.2          42.82          16.05          123.0          22.38
    0.8905              -29.29          12.81          10.88          40.07          8.566         -19.27         -126.4          42.87          16.29          122.9          22.59
    0.9183              -29.36          12.76          11.01          40.04          8.535         -19.27         -125.6          42.93          16.57          122.7          22.84
    0.9461              -29.43          12.71          11.17          40.02          8.499         -19.27         -124.6           43.0           16.9          122.6          23.12
     0.974              -29.52          12.64          11.34          39.99          8.456         -19.27         -123.4          43.08          17.29          122.4          23.46
     1.002              -29.63          12.57          11.56          39.95          8.405         -19.27         -122.0          43.18          17.75          122.2          23.86
      1.03              -29.76          12.47          11.81          39.91          8.345         -19.27         -120.3           43.3           18.3          122.0          24.33
     1.057              -29.91          12.36          12.12          39.86          8.271         -19.27         -118.2          43.45          18.96          121.7          24.91
     1.085               -30.1          12.22           12.5          39.79          8.182         -19.27         -115.7          43.62          19.78          121.3          25.62
     1.113              -30.33          12.05          12.96          39.71          8.071         -19.27         -112.7          43.84          20.78          120.9          26.49
     1.141              -30.62          11.84          13.54          39.62          7.933         -19.27         -108.8          44.11          22.03          120.4          27.58
     1.169              -30.99          11.57          14.27          39.49          7.759         -19.27         -104.0          44.45          23.61          119.7          28.95
     1.197              -31.45          11.24          15.19          39.33          7.539         -19.27          -97.8          44.88          25.61          118.8          30.69
     1.224              -32.05           10.8          16.38          39.13          7.256         -19.27         -89.92          45.43          28.18          117.7          32.92
     1.252              -32.81          10.25           17.9          38.88          6.893         -19.27          -79.8          46.15          31.47          116.2          35.78
      1.28              -33.79          9.534          19.85          38.55           6.43         -19.27         -66.87          47.05          35.68          114.4          39.43
     1.308              -35.01           8.64          22.29          38.13          5.847         -19.27         -50.61          48.19          40.96          112.1          44.02
     1.336              -36.51           7.55          25.27          37.62          5.137         -19.27         -30.81          49.59          47.41          109.3          49.62
